<svg width="72" height="72" viewBox="0 0 72 72" fill="none" xmlns="http://www.w3.org/2000/svg">
<rect width="72" height="72" fill="#1D323C"/>
<path fill-rule="evenodd" clip-rule="evenodd" d="M29.7144 17.5056C30.2237 13.9463 33.2736 11.2971 36.8646 11.2971H37.2373C41.0198 11.2971 44.0862 14.3635 44.0862 18.1461H47.3833C47.3833 12.5426 42.8408 8 37.2373 8H36.8646C31.6286 8 27.1915 11.8598 26.4506 17.0387C25.9883 20.2696 27.0487 23.5392 29.3253 25.8809L42.0852 39.0056C44.4255 41.4128 45.7348 44.6378 45.7348 47.9952C45.7348 55.1175 39.961 60.8913 32.8386 60.8913H31.5159C23.6631 60.8913 17.2971 54.5253 17.2971 46.6725V25.0733L37.9323 46.0178L40.281 43.7038L14 17.0289V46.6725C14 56.3463 21.8422 64.1884 31.5159 64.1884H32.8386C41.7819 64.1884 49.0319 56.9384 49.0319 47.9952C49.0319 43.7795 47.3879 39.73 44.4492 36.7073L31.6894 23.5826C30.1265 21.975 29.3966 19.7274 29.7144 17.5056ZM57 52.6485V17.5512L43.137 29.7027L45.3103 32.1822L53.7029 24.8257V52.6485H57Z" fill="white"/>
</svg>
