<svg width="127" height="20" viewBox="0 0 127 20" fill="none" xmlns="http://www.w3.org/2000/svg">
<path d="M25.8632 1.62214H27.7082C28.171 1.62214 28.5817 1.71386 28.9402 1.89732C29.2988 2.08077 29.5761 2.33927 29.772 2.67282C29.9722 3.00221 30.0722 3.38162 30.0722 3.81107C30.0722 4.24052 29.9722 4.62202 29.772 4.95557C29.5761 5.28495 29.2988 5.54137 28.9402 5.72482C28.5817 5.90827 28.171 6 27.7082 6H25.8632V1.62214ZM27.6707 5.45589C28.0251 5.45589 28.3357 5.3871 28.6025 5.24951C28.8735 5.11192 29.082 4.92013 29.2279 4.67413C29.3739 4.42397 29.4468 4.13628 29.4468 3.81107C29.4468 3.48586 29.3739 3.20025 29.2279 2.95426C29.082 2.70409 28.8735 2.51022 28.6025 2.37263C28.3357 2.23504 28.0251 2.16624 27.6707 2.16624H26.4886V5.45589H27.6707ZM36.7089 5.45589V6H33.5318V1.62214H36.6213V2.16624H34.1572V3.51087H36.3524V4.04247H34.1572V5.45589H36.7089ZM43.9646 1.62214L42.0446 6H41.4255L39.4992 1.62214H40.1746L41.7507 5.21824L43.3392 1.62214H43.9646ZM50.2016 5.45589V6H47.0245V1.62214H50.114V2.16624H47.6499V3.51087H49.8451V4.04247H47.6499V5.45589H50.2016ZM53.7159 1.62214H54.3413V5.45589H56.7116V6H53.7159V1.62214ZM61.8278 6.05003C61.3859 6.05003 60.9877 5.95414 60.6333 5.76234C60.2789 5.56638 59.9995 5.29746 59.7952 4.95557C59.5951 4.61368 59.495 4.23218 59.495 3.81107C59.495 3.38996 59.5951 3.00846 59.7952 2.66657C59.9995 2.32468 60.2789 2.05784 60.6333 1.86605C60.9877 1.67009 61.3859 1.5721 61.8278 1.5721C62.2656 1.5721 62.6617 1.67009 63.0161 1.86605C63.3705 2.05784 63.6477 2.32468 63.8479 2.66657C64.048 3.00429 64.1481 3.38579 64.1481 3.81107C64.1481 4.23635 64.048 4.61993 63.8479 4.96182C63.6477 5.29954 63.3705 5.56638 63.0161 5.76234C62.6617 5.95414 62.2656 6.05003 61.8278 6.05003ZM61.8278 5.49342C62.1489 5.49342 62.4365 5.42045 62.6909 5.27453C62.9494 5.1286 63.1516 4.92847 63.2975 4.67413C63.4476 4.41563 63.5227 4.12794 63.5227 3.81107C63.5227 3.49419 63.4476 3.20859 63.2975 2.95426C63.1516 2.69576 62.9494 2.49354 62.6909 2.34761C62.4365 2.20168 62.1489 2.12872 61.8278 2.12872C61.5068 2.12872 61.2149 2.20168 60.9522 2.34761C60.6937 2.49354 60.4894 2.69576 60.3393 2.95426C60.1934 3.20859 60.1204 3.49419 60.1204 3.81107C60.1204 4.12794 60.1934 4.41563 60.3393 4.67413C60.4894 4.92847 60.6937 5.1286 60.9522 5.27453C61.2149 5.42045 61.5068 5.49342 61.8278 5.49342ZM69.313 1.62214C69.88 1.62214 70.3261 1.75764 70.6514 2.02865C70.9766 2.29966 71.1392 2.67282 71.1392 3.14813C71.1392 3.62345 70.9766 3.99661 70.6514 4.26762C70.3261 4.53863 69.88 4.67413 69.313 4.67413H68.231V6H67.6056V1.62214H69.313ZM69.2942 4.13003C69.6903 4.13003 69.9926 4.04664 70.2011 3.87986C70.4095 3.70892 70.5138 3.46501 70.5138 3.14813C70.5138 2.83126 70.4095 2.58944 70.2011 2.42266C69.9926 2.25172 69.6903 2.16624 69.2942 2.16624H68.231V4.13003H69.2942ZM77.7367 5.45589V6H74.5596V1.62214H77.6491V2.16624H75.185V3.51087H77.3802V4.04247H75.185V5.45589H77.7367ZM81.251 1.62214H83.096C83.5588 1.62214 83.9694 1.71386 84.328 1.89732C84.6866 2.08077 84.9639 2.33927 85.1598 2.67282C85.3599 3.00221 85.46 3.38162 85.46 3.81107C85.46 4.24052 85.3599 4.62202 85.1598 4.95557C84.9639 5.28495 84.6866 5.54137 84.328 5.72482C83.9694 5.90827 83.5588 6 83.096 6H81.251V1.62214ZM83.0584 5.45589C83.4128 5.45589 83.7235 5.3871 83.9903 5.24951C84.2613 5.11192 84.4698 4.92013 84.6157 4.67413C84.7616 4.42397 84.8346 4.13628 84.8346 3.81107C84.8346 3.48586 84.7616 3.20025 84.6157 2.95426C84.4698 2.70409 84.2613 2.51022 83.9903 2.37263C83.7235 2.23504 83.4128 2.16624 83.0584 2.16624H81.8764V5.45589H83.0584ZM96.0465 3.72977C96.3008 3.80064 96.5009 3.9299 96.6469 4.11752C96.7928 4.30097 96.8658 4.53446 96.8658 4.81798C96.8658 5.19739 96.7219 5.48925 96.4342 5.69355C96.1507 5.89785 95.7359 6 95.1897 6H93.1008V1.62214H95.0646C95.5649 1.62214 95.9506 1.7222 96.2216 1.92233C96.4968 2.12246 96.6344 2.39973 96.6344 2.75413C96.6344 2.98344 96.5802 3.18149 96.4717 3.34827C96.3675 3.51504 96.2258 3.64221 96.0465 3.72977ZM93.7262 2.12872V3.52963H95.0083C95.3293 3.52963 95.5753 3.47126 95.7463 3.35452C95.9214 3.23361 96.0089 3.05849 96.0089 2.82918C96.0089 2.59986 95.9214 2.42683 95.7463 2.31009C95.5753 2.18917 95.3293 2.12872 95.0083 2.12872H93.7262ZM95.1646 5.49342C95.519 5.49342 95.7859 5.43505 95.9652 5.3183C96.1445 5.20156 96.2341 5.01811 96.2341 4.76794C96.2341 4.28013 95.8776 4.03622 95.1646 4.03622H93.7262V5.49342H95.1646ZM101.92 4.48651V6H101.301V4.474L99.5624 1.62214H100.232L101.633 3.9299L103.04 1.62214H103.659L101.92 4.48651Z" fill="#C8D4DD"/>
<path fill-rule="evenodd" clip-rule="evenodd" d="M4.71611 4.72719V0.0285645H4.52691C2.02677 0.0285645 0 2.05534 0 4.55548V4.72719H4.71611ZM4.71611 5.77746H0V14.256C0 16.7561 2.02677 18.7829 4.52691 18.7829H13.4393L13.4393 14.2882H5.24124H4.71611V13.7631V5.77746ZM10.6926 5.77746L13.4393 11.7417L13.4393 5.77746H10.6926ZM11.7409 10.5647L12.972 13.238H6.13219L7.39848 10.5647H11.7409ZM11.2573 9.51444L9.60029 5.91644L7.89597 9.51444H11.2573ZM8.50399 5.77746L5.76637 11.5569V5.77746H8.50399ZM14.4895 13.238L14.4895 5.25232L14.4895 4.72719H13.9644L5.76637 4.72719V0.0285645H14.443C16.9431 0.0285645 18.9699 2.05533 18.9699 4.55548V13.238H14.4895ZM14.4895 14.2882L14.4895 18.7827C16.9575 18.7578 18.9526 16.758 18.9698 14.2882H14.4895Z" fill="#C8D4DD"/>
<path d="M126.107 14.9575H123.888V17.126H122.242V14.9575H120.035V13.4012H122.242V11.2327H123.888V13.4012H126.107V14.9575Z" fill="#C8D4DD"/>
<path fill-rule="evenodd" clip-rule="evenodd" d="M72.8413 11.6394H75.6023V18.8849H77.6688V11.6394H80.5262V9.95556H73.8505L72.8413 11.6394ZM88.3877 18.4511C89.1275 18.8423 89.9524 19.0379 90.8624 19.0379C91.6362 19.0379 92.3378 18.9019 92.9671 18.6297C93.5964 18.3576 94.1237 17.9622 94.5489 17.4434L93.2222 16.2188C92.6185 16.9247 91.8701 17.2776 90.9772 17.2776C90.4244 17.2776 89.9312 17.1585 89.4974 16.9204C89.0637 16.6738 88.7236 16.3336 88.477 15.8999C88.2388 15.4662 88.1198 14.973 88.1198 14.4202C88.1198 13.8674 88.2388 13.3742 88.477 12.9405C88.7236 12.5068 89.0637 12.1709 89.4974 11.9328C89.9312 11.6861 90.4244 11.5628 90.9772 11.5628C91.8701 11.5628 92.6185 11.9115 93.2222 12.6088L94.5489 11.3843C94.1237 10.874 93.5964 10.4828 92.9671 10.2107C92.3463 9.93856 91.649 9.80249 90.8751 9.80249C89.9567 9.80249 89.1275 10.0023 88.3877 10.402C87.6563 10.7932 87.078 11.3417 86.6528 12.0476C86.2361 12.7449 86.0278 13.5358 86.0278 14.4202C86.0278 15.3046 86.2361 16.0998 86.6528 16.8056C87.078 17.5029 87.6563 18.0515 88.3877 18.4511ZM28.5041 16.9714H32.6498L33.4407 18.8849H35.6093L31.6166 9.95556H29.5756L25.5957 18.8849H27.7132L28.5041 16.9714ZM30.5834 11.9838L31.9993 15.4024H29.1674L30.5834 11.9838ZM45.1078 18.8849V9.95556H43.0668V15.3769L38.6277 9.95556H36.9184V18.8849H38.9593V13.4635L43.4112 18.8849H45.1078ZM53.4837 16.9714H49.338L48.5471 18.8849H46.4296L50.4095 9.95556H52.4505L56.4431 18.8849H54.2746L53.4837 16.9714ZM52.8331 15.4024L51.4172 11.9838L50.0013 15.4024H52.8331ZM59.8187 9.95556H57.7522V18.8849H64.2961V17.201H59.8187V9.95556ZM69.1977 15.7213V18.8849H67.1312V15.6958L63.6743 9.95556H65.8683L68.2537 13.9227L70.6391 9.95556H72.6673L69.1977 15.7213ZM82.0208 9.95556H84.0872V18.8849H82.0208V9.95556ZM100.219 19.0379C98.9439 19.0379 97.9489 18.685 97.2346 17.9792C96.5287 17.2733 96.1758 16.2656 96.1758 14.956V9.95556H98.2423V14.8794C98.2423 16.4782 98.9056 17.2776 100.232 17.2776C100.879 17.2776 101.372 17.0862 101.712 16.7036C102.052 16.3124 102.222 15.7043 102.222 14.8794V9.95556H104.263V14.956C104.263 16.2656 103.906 17.2733 103.192 17.9792C102.486 18.685 101.495 19.0379 100.219 19.0379ZM114.801 13.5273L114.814 18.8849H116.753L116.727 9.95556H115.03L111.739 15.5045L108.397 9.95556H106.688V18.8849H108.627V13.6421L111.242 17.9409H112.173L114.801 13.5273Z" fill="#C8D4DD"/>
</svg>
