<svg width="59" height="64" viewBox="0 0 59 64" fill="none" xmlns="http://www.w3.org/2000/svg">
<path d="M20.7593 62V23H32.7778H44.7963L44.7963 62" stroke="#8E6857" stroke-width="3"/>
<path d="M31.6851 23V13L42.611 4H53.5369L53.5369 61" stroke="#8E6857" stroke-width="3"/>
<path d="M38.2408 36L44.7964 36L44.7964 29L38.2408 29" stroke="#8E6857" stroke-width="3"/>
<path d="M40.426 17L53.5371 17L53.5371 11L40.426 11" stroke="#8E6857" stroke-width="3"/>
<path d="M59 62L0 62" stroke="#8E6857" stroke-width="3"/>
<path d="M31.6851 51L31.6851 62L7.64802 62L7.64802 51" stroke="#8E6857" stroke-width="3"/>
<path d="M12.7612 46.5263C12.7612 49.18 10.3681 51.5526 7.1306 51.5526C3.89311 51.5526 1.5 49.18 1.5 46.5263C1.5 45.0616 2.18605 42.6925 3.37948 40.6753C3.96643 39.6832 4.63017 38.8566 5.31079 38.294C5.99137 37.7313 6.60233 37.5 7.1306 37.5C7.65888 37.5 8.26984 37.7313 8.95042 38.294C9.63104 38.8566 10.2948 39.6832 10.8817 40.6753C12.0752 42.6925 12.7612 45.0616 12.7612 46.5263Z" stroke="#8E6857" stroke-width="3"/>
<path d="M37.8911 46.5263C37.8911 49.18 35.498 51.5526 32.2605 51.5526C29.023 51.5526 26.6299 49.18 26.6299 46.5263C26.6299 45.0616 27.3159 42.6925 28.5094 40.6753C29.0963 39.6832 29.7601 38.8566 30.4407 38.294C31.1213 37.7313 31.7322 37.5 32.2605 37.5C32.7888 37.5 33.3997 37.7313 34.0803 38.294C34.7609 38.8566 35.4247 39.6832 36.0116 40.6753C37.205 42.6925 37.8911 45.0616 37.8911 46.5263Z" stroke="#8E6857" stroke-width="3"/>
<path d="M10.5 2.90903L12.671 6.51643L12.9986 7.06092L13.6177 7.2043L17.7194 8.15426L14.9595 11.3337L14.5429 11.8136L14.5978 12.4467L14.9619 16.6412L11.0851 14.9988L10.5 14.7509L9.91487 14.9988L6.03814 16.6412L6.40217 12.4467L6.45712 11.8136L6.04054 11.3337L3.28056 8.15426L7.38227 7.2043L8.00136 7.06092L8.32904 6.51643L10.5 2.90903Z" stroke="#8E6857" stroke-width="3"/>
</svg>
