<svg width="58" height="60" viewBox="0 0 58 60" fill="none" xmlns="http://www.w3.org/2000/svg">
<path d="M0.660156 38H57.1602" stroke="#8E6857" stroke-width="3"/>
<path d="M40.6602 36V20.3077L50.6602 12V37.5" stroke="#8E6857" stroke-width="3"/>
<path d="M25.6602 38V2H40.6602V38" stroke="#8E6857" stroke-width="3"/>
<path d="M6.66016 38V17H19.6602V38" stroke="#8E6857" stroke-width="3"/>
<path d="M7.66016 23.5H12.1602" stroke="#8E6857" stroke-width="3"/>
<path d="M28.6602 16H33.1602" stroke="#8E6857" stroke-width="3"/>
<path d="M28.6602 24H33.1602" stroke="#8E6857" stroke-width="3"/>
<path d="M28.6602 32H33.1602" stroke="#8E6857" stroke-width="3"/>
<path d="M28.6602 8H33.1602" stroke="#8E6857" stroke-width="3"/>
<path d="M7.66016 31H12.1602" stroke="#8E6857" stroke-width="3"/>
<path fill-rule="evenodd" clip-rule="evenodd" d="M57.4968 46.2452L55.2759 47.7368C52.5178 49.5892 48.9674 49.7849 46.0224 48.2468L45.9181 48.1923C44.1491 47.2685 42.0314 47.3097 40.2997 48.3016C37.6804 49.8019 34.4771 49.8642 31.8014 48.4668L31.2759 48.1923C29.5069 47.2685 27.3892 47.3097 25.6575 48.3016C23.0382 49.8019 19.8349 49.8642 17.1592 48.4668L16.6878 48.2206C14.8852 47.2791 12.727 47.3211 10.9623 48.3319C8.3799 49.8111 5.23179 49.9123 2.55976 48.602L0 47.3468L1.32087 44.6532L3.88063 45.9084C5.65844 46.7802 7.75301 46.7129 9.47116 45.7288C12.1235 44.2095 15.3672 44.1464 18.0766 45.5614L18.548 45.8076C20.317 46.7315 22.4347 46.6903 24.1664 45.6984C26.7857 44.198 29.989 44.1357 32.6647 45.5331L33.1902 45.8076C34.9592 46.7315 37.0769 46.6903 38.8086 45.6984C41.4279 44.198 44.6312 44.1357 47.3069 45.5331L47.4112 45.5876C49.3819 46.6169 51.7577 46.4859 53.6033 45.2463L55.8241 43.7548L57.4968 46.2452Z" fill="#8E6857"/>
<path fill-rule="evenodd" clip-rule="evenodd" d="M55.2759 57.7368L57.4968 56.2452L55.8241 53.7548L53.6033 55.2463C51.7577 56.4859 49.3819 56.6169 47.4112 55.5876L47.3069 55.5331C44.6312 54.1357 41.4279 54.198 38.8086 55.6984C37.0769 56.6903 34.9592 56.7315 33.1902 55.8076L32.6647 55.5331C31.4079 54.8768 30.0348 54.5425 28.6604 54.5279V57.5282C29.5584 57.5426 30.4547 57.7635 31.2759 58.1923L31.8014 58.4668C34.4771 59.8642 37.6804 59.8019 40.2997 58.3016C42.0314 57.3097 44.1491 57.2685 45.9181 58.1923L46.0224 58.2468C48.9674 59.7849 52.5178 59.5892 55.2759 57.7368ZM20.6604 59.4524V56.442C19.933 56.3675 19.2156 56.1563 18.548 55.8076L18.0766 55.5614C15.3672 54.1464 12.1235 54.2095 9.47116 55.7288C7.75301 56.7129 5.65844 56.7802 3.88063 55.9084L1.32087 54.6532L0 57.3468L2.55976 58.602C5.23179 59.9123 8.3799 59.8111 10.9623 58.3319C12.727 57.3211 14.8852 57.2791 16.6878 58.2206L17.1592 58.4668C18.2626 59.043 19.4556 59.3711 20.6604 59.4524Z" fill="#8E6857"/>
</svg>
