<svg width="342" height="37" viewBox="0 0 342 37" fill="none" xmlns="http://www.w3.org/2000/svg">
<path d="M51.9985 10.7812V12.0996L47.3208 25H44.9185L49.606 12.6953H43.6001V10.7812H51.9985ZM56.188 18.4082L54.3716 17.9395L55.0356 10.7812H61.5884V12.8223H56.9204L56.6177 16.25C56.8 16.1198 57.0441 15.9928 57.3501 15.8691C57.6561 15.7389 58.0011 15.6738 58.3853 15.6738C58.9582 15.6738 59.4692 15.7845 59.9185 16.0059C60.3677 16.2272 60.7485 16.5462 61.061 16.9629C61.3735 17.373 61.6079 17.8711 61.7642 18.457C61.9269 19.043 62.0083 19.707 62.0083 20.4492C62.0083 21.1068 61.9237 21.722 61.7544 22.2949C61.5916 22.8613 61.3442 23.3626 61.0122 23.7988C60.6802 24.235 60.2603 24.5768 59.7524 24.8242C59.2446 25.0716 58.6554 25.1953 57.9849 25.1953C57.4771 25.1953 56.992 25.1107 56.5298 24.9414C56.0675 24.7656 55.6509 24.5052 55.2798 24.1602C54.9152 23.8151 54.619 23.3919 54.3911 22.8906C54.1698 22.3828 54.0461 21.8001 54.02 21.1426H56.2368C56.2759 21.5983 56.3703 21.9857 56.52 22.3047C56.6763 22.6237 56.8748 22.8678 57.1157 23.0371C57.3631 23.1999 57.6496 23.2812 57.9751 23.2812C58.2681 23.2812 58.5252 23.2129 58.7466 23.0762C58.9744 22.9329 59.16 22.7311 59.3032 22.4707C59.4465 22.2103 59.5539 21.9043 59.6255 21.5527C59.6971 21.1947 59.7329 20.8008 59.7329 20.3711C59.7329 19.9609 59.6906 19.5866 59.606 19.248C59.5278 18.903 59.4074 18.6068 59.2446 18.3594C59.0819 18.1055 58.8768 17.9102 58.6294 17.7734C58.3885 17.6367 58.1053 17.5684 57.7798 17.5684C57.3436 17.5684 57.0181 17.653 56.8032 17.8223C56.5884 17.985 56.3833 18.1803 56.188 18.4082ZM73.9907 21.8457L76.354 14.4336H78.3267L74.8013 25H73.1704L69.6353 14.4336H71.6274L73.9907 21.8457ZM71.0024 14.4336V25H68.7759V14.4336H71.0024ZM76.979 25V14.4336H79.2153V25H76.979ZM86.481 17.0508V18.4863H81.3638V17.2754L83.7173 14.6973C83.9321 14.4564 84.0981 14.235 84.2153 14.0332C84.339 13.8249 84.4302 13.6393 84.4888 13.4766C84.5474 13.3073 84.5767 13.1641 84.5767 13.0469C84.5767 12.7734 84.5116 12.5488 84.3813 12.373C84.2576 12.1973 84.0721 12.1094 83.8247 12.1094C83.5252 12.1094 83.3006 12.2266 83.1509 12.4609C83.0076 12.6888 82.936 12.9655 82.936 13.291H81.2271C81.2271 12.8092 81.328 12.3698 81.5298 11.9727C81.7316 11.5755 82.0213 11.2598 82.3989 11.0254C82.783 10.791 83.2355 10.6738 83.7563 10.6738C84.2967 10.6738 84.7524 10.7682 85.1235 10.957C85.5011 11.1458 85.7876 11.416 85.9829 11.7676C86.1847 12.1191 86.2856 12.5423 86.2856 13.0371C86.2856 13.4017 86.2205 13.737 86.0903 14.043C85.9666 14.3424 85.7778 14.6419 85.5239 14.9414C85.27 15.2409 84.9478 15.5697 84.5571 15.9277L83.5806 17.0508H86.481Z" fill="#8E6857"/>
<path d="M4.34548 30.7942L28.7226 6.03029M4.34548 30.7942L4.45223 23.0213M4.34548 30.7942L12.0458 30.73M28.7226 6.03029L20.669 6.02269M28.7226 6.03029L28.73 14.2951" stroke="#8E6857" stroke-width="1.5" stroke-linecap="round"/>
<path d="M14.7985 6.02991H4.37549V15.8015" stroke="#8E6857" stroke-width="1.5" stroke-linecap="round"/>
<path d="M28.479 20.3615L28.479 30.7845L18.7074 30.7845" stroke="#8E6857" stroke-width="1.5" stroke-linecap="round"/>
<path d="M167.793 21.123C167.793 22.0085 167.62 22.7539 167.275 23.3594C166.937 23.9648 166.468 24.4238 165.869 24.7363C165.277 25.0423 164.606 25.1953 163.857 25.1953C163.102 25.1953 162.425 25.0423 161.826 24.7363C161.234 24.4238 160.762 23.9648 160.41 23.3594C160.065 22.7474 159.893 22.002 159.893 21.123C159.893 20.5371 159.99 20.0033 160.186 19.5215C160.381 19.0397 160.654 18.6263 161.006 18.2812C161.357 17.9297 161.774 17.6595 162.256 17.4707C162.738 17.2819 163.265 17.1875 163.838 17.1875C164.6 17.1875 165.277 17.3535 165.869 17.6855C166.468 18.0176 166.937 18.4798 167.275 19.0723C167.62 19.6582 167.793 20.3418 167.793 21.123ZM165.527 20.9961C165.527 20.5273 165.456 20.1172 165.312 19.7656C165.176 19.4076 164.98 19.1341 164.727 18.9453C164.479 18.75 164.183 18.6523 163.838 18.6523C163.493 18.6523 163.193 18.75 162.939 18.9453C162.692 19.1341 162.5 19.4076 162.363 19.7656C162.233 20.1172 162.168 20.5273 162.168 20.9961C162.168 21.4714 162.233 21.8815 162.363 22.2266C162.5 22.5651 162.692 22.8255 162.939 23.0078C163.193 23.1901 163.499 23.2812 163.857 23.2812C164.209 23.2812 164.508 23.1901 164.756 23.0078C165.01 22.8255 165.202 22.5651 165.332 22.2266C165.462 21.8815 165.527 21.4714 165.527 20.9961ZM167.549 14.5215C167.549 15.2376 167.389 15.8724 167.07 16.4258C166.751 16.9792 166.315 17.4121 165.762 17.7246C165.208 18.0371 164.574 18.1934 163.857 18.1934C163.135 18.1934 162.493 18.0371 161.934 17.7246C161.374 17.4121 160.934 16.9792 160.615 16.4258C160.303 15.8659 160.146 15.2311 160.146 14.5215C160.146 13.6751 160.303 12.9622 160.615 12.3828C160.934 11.7969 161.374 11.3509 161.934 11.0449C162.493 10.7389 163.132 10.5859 163.848 10.5859C164.577 10.5859 165.218 10.7389 165.771 11.0449C166.325 11.3509 166.758 11.7969 167.07 12.3828C167.389 12.9688 167.549 13.6816 167.549 14.5215ZM165.273 14.6094C165.273 14.1927 165.218 13.8281 165.107 13.5156C164.997 13.1966 164.834 12.9492 164.619 12.7734C164.411 12.5911 164.157 12.5 163.857 12.5C163.558 12.5 163.301 12.5846 163.086 12.7539C162.878 12.9232 162.715 13.1673 162.598 13.4863C162.48 13.7988 162.422 14.1732 162.422 14.6094C162.422 15.0391 162.477 15.4134 162.588 15.7324C162.705 16.0514 162.871 16.3021 163.086 16.4844C163.301 16.6602 163.558 16.748 163.857 16.748C164.157 16.748 164.411 16.6602 164.619 16.4844C164.834 16.3021 164.997 16.0514 165.107 15.7324C165.218 15.4134 165.273 15.0391 165.273 14.6094Z" fill="#8E6857"/>
<rect x="123.54" y="5.96149" width="24.5575" height="24.5575" stroke="#8E6857" stroke-width="1.5"/>
<path d="M137.122 5.21149V11.7259V18.2402H122.79" stroke="#8E6857" stroke-width="1.5"/>
<path d="M137.122 31.269L137.122 28.0119L137.122 24.7547L147.545 24.7547" stroke="#8E6857" stroke-width="1.5"/>
<path d="M141.03 18.2403L141.03 16.286L141.03 14.3317L148.848 14.3317" stroke="#8E6857" stroke-width="1.5"/>
<path d="M124.093 24.7547H130.607" stroke="#8E6857" stroke-width="1.5"/>
<path d="M241.735 16.8066H242.956C243.373 16.8066 243.715 16.7155 243.981 16.5332C244.255 16.3444 244.457 16.0872 244.587 15.7617C244.717 15.4297 244.782 15.0521 244.782 14.6289C244.782 14.1862 244.72 13.8053 244.597 13.4863C244.479 13.1673 244.3 12.9232 244.06 12.7539C243.825 12.5846 243.526 12.5 243.161 12.5C242.849 12.5 242.569 12.5814 242.321 12.7441C242.074 12.9004 241.879 13.1283 241.735 13.4277C241.599 13.7207 241.53 14.069 241.53 14.4727H239.255C239.255 13.7174 239.421 13.0469 239.753 12.4609C240.085 11.875 240.541 11.416 241.12 11.084C241.706 10.7454 242.373 10.5762 243.122 10.5762C243.897 10.5762 244.577 10.7292 245.163 11.0352C245.756 11.3411 246.218 11.7936 246.55 12.3926C246.888 12.9915 247.058 13.7337 247.058 14.6191C247.058 15.0293 246.979 15.4427 246.823 15.8594C246.667 16.276 246.433 16.6569 246.12 17.002C245.814 17.3405 245.427 17.6139 244.958 17.8223C244.496 18.0306 243.949 18.1348 243.317 18.1348H241.735V16.8066ZM241.735 18.6816V17.373H243.327C244.05 17.373 244.659 17.4707 245.153 17.666C245.655 17.8548 246.055 18.1217 246.354 18.4668C246.66 18.8053 246.882 19.196 247.019 19.6387C247.155 20.0749 247.224 20.5339 247.224 21.0156C247.224 21.6797 247.119 22.2721 246.911 22.793C246.709 23.3073 246.42 23.7467 246.042 24.1113C245.664 24.4694 245.228 24.7396 244.733 24.9219C244.239 25.1042 243.698 25.1953 243.112 25.1953C242.585 25.1953 242.084 25.1107 241.608 24.9414C241.133 24.7721 240.71 24.5215 240.339 24.1895C239.974 23.8509 239.685 23.431 239.47 22.9297C239.261 22.4219 239.157 21.8327 239.157 21.1621H241.423C241.423 21.5788 241.494 21.9466 241.638 22.2656C241.781 22.5846 241.979 22.8353 242.233 23.0176C242.494 23.1934 242.797 23.2812 243.142 23.2812C243.513 23.2812 243.832 23.1934 244.099 23.0176C244.372 22.8418 244.58 22.5846 244.724 22.2461C244.873 21.9076 244.948 21.4974 244.948 21.0156C244.948 20.4753 244.867 20.0326 244.704 19.6875C244.548 19.3424 244.323 19.0885 244.03 18.9258C243.737 18.763 243.382 18.6816 242.966 18.6816H241.735Z" fill="#8E6857"/>
<path d="M200.443 19.9374C200.443 18.6947 201.451 17.6874 202.693 17.6874H225.357C226.599 17.6874 227.607 18.6947 227.607 19.9374V26.6104H200.443V19.9374Z" stroke="#8E6857" stroke-width="1.5"/>
<path d="M202.299 27.3604V29.9661M225.751 27.3604V29.9661" stroke="#8E6857" stroke-width="1.5"/>
<path d="M203.049 12.1201C203.049 10.8775 204.056 9.87012 205.299 9.87012H222.751C223.993 9.87012 225.001 10.8775 225.001 12.1201V17.4902H203.049V12.1201Z" stroke="#8E6857" stroke-width="1.5"/>
<path d="M212.722 18.2402V15.3316C212.722 14.7793 212.274 14.3316 211.722 14.3316H205.905C205.353 14.3316 204.905 14.7793 204.905 15.3316V18.2402" stroke="#8E6857" stroke-width="1.5"/>
<path d="M223.145 18.2402V15.3316C223.145 14.7793 222.697 14.3316 222.145 14.3316H216.328C215.775 14.3316 215.328 14.7793 215.328 15.3316V18.2402" stroke="#8E6857" stroke-width="1.5"/>
<path d="M331.406 23.0859V25H323.223V23.3496L327.1 18.3203C327.523 17.7539 327.848 17.2656 328.076 16.8555C328.311 16.4388 328.473 16.0645 328.564 15.7324C328.656 15.4004 328.701 15.0749 328.701 14.7559C328.701 14.3132 328.639 13.9225 328.516 13.584C328.398 13.2454 328.223 12.9818 327.988 12.793C327.754 12.5977 327.467 12.5 327.129 12.5C326.706 12.5 326.357 12.6139 326.084 12.8418C325.811 13.0632 325.609 13.3724 325.479 13.7695C325.348 14.1602 325.283 14.6094 325.283 15.1172H323.008C323.008 14.2839 323.167 13.5254 323.486 12.8418C323.812 12.1517 324.284 11.6048 324.902 11.2012C325.521 10.791 326.273 10.5859 327.158 10.5859C327.979 10.5859 328.672 10.7454 329.238 11.0645C329.811 11.3835 330.244 11.8392 330.537 12.4316C330.837 13.0176 330.986 13.7109 330.986 14.5117C330.986 14.9544 330.924 15.3971 330.801 15.8398C330.684 16.276 330.518 16.709 330.303 17.1387C330.088 17.5684 329.827 18.0013 329.521 18.4375C329.222 18.8737 328.893 19.3164 328.535 19.7656L326.074 23.0859H331.406Z" fill="#8E6857"/>
<path d="M308.418 25.6638C308.418 26.9065 307.411 27.9138 306.168 27.9138H283.505C282.263 27.9138 281.255 26.9065 281.255 25.6638V18.9908H308.418V25.6638Z" stroke="#8E6857" stroke-width="1.5"/>
<path d="M288.899 8.0731C288.708 7.38685 288.924 6.62204 289.51 6.14119C290.096 5.66035 290.888 5.59814 291.524 5.91885L288.899 8.0731Z" stroke="#8E6857" stroke-width="1.30288"/>
<path d="M283.111 27.361V29.9667M306.563 27.361V29.9667" stroke="#8E6857" stroke-width="1.5"/>
<path d="M277.899 18.8923H312.426" stroke="#8E6857" stroke-width="1.5"/>
<path d="M284.414 19.5431L284.414 9.51434C284.414 7.85748 285.757 6.51434 287.414 6.51434L289.625 6.51434" stroke="#8E6857" stroke-width="1.5"/>
</svg>
