<svg width="38" height="49" viewBox="0 0 38 49" fill="none" xmlns="http://www.w3.org/2000/svg">
<path fill-rule="evenodd" clip-rule="evenodd" d="M13.5494 8.42109C13.9885 5.3522 16.6182 3.06796 19.7145 3.06796H20.0358C23.2972 3.06796 25.9411 5.71188 25.9411 8.97332H28.784C28.784 4.14181 24.8673 0.225098 20.0358 0.225098H19.7145C15.1998 0.225098 11.374 3.55313 10.7352 8.01847C10.3366 10.8043 11.2509 13.6234 13.2139 15.6425L24.2158 26.959C26.2337 29.0345 27.3626 31.8152 27.3626 34.71C27.3626 40.851 22.3842 45.8294 16.2432 45.8294H15.1027C8.33178 45.8294 2.84286 40.3404 2.84286 33.5695V14.9462L20.635 33.005L22.6601 31.0098L0 8.01003V33.5695C0 41.9105 6.76171 48.6722 15.1027 48.6722H16.2432C23.9543 48.6722 30.2054 42.4211 30.2054 34.71C30.2054 31.0751 28.7879 27.5835 26.2541 24.9773L15.2522 13.6608C13.9046 12.2747 13.2753 10.3367 13.5494 8.42109ZM37.0757 38.7222V8.46038L25.1227 18.9377L26.9966 21.0756L34.2329 14.7327V38.7222H37.0757Z" fill="white"/>
</svg>
