<svg width="64" height="60" viewBox="0 0 64 60" fill="none" xmlns="http://www.w3.org/2000/svg">
<path d="M5.71777 58V2H28.2178V23.6774" stroke="#8E6857" stroke-width="3"/>
<path d="M12.9756 58V23.6774H42.7336V34.5" stroke="#8E6857" stroke-width="3"/>
<path d="M56.5244 42.6451L56.5244 52.5806L35.476 52.5806L35.476 42.6451" stroke="#8E6857" stroke-width="3"/>
<path d="M18.0566 58V45.3549H25.3147V58" stroke="#8E6857" stroke-width="3"/>
<path d="M15.8791 15.5484L5.71777 15.5484L5.71777 8.3226L15.8791 8.32259" stroke="#8E6857" stroke-width="3"/>
<path d="M56.5244 52.5806L56.5244 58L35.476 58L35.476 52.5806" stroke="#8E6857" stroke-width="3"/>
<path d="M35 58L0 58" stroke="#8E6857" stroke-width="3"/>
<path d="M21.6855 28.1935V36" stroke="#8E6857" stroke-width="3"/>
<path d="M25.6772 32.2664L17.3305 32.2664" stroke="#8E6857" stroke-width="3"/>
<path d="M37.2812 35L32.5723 42.7729H60.1529L54.7713 35H37.2812Z" stroke="#8E6857" stroke-width="3"/>
<path d="M46 35V42.4491" stroke="#8E6857" stroke-width="3"/>
<path d="M42.008 35L39.8306 42.4491" stroke="#8E6857" stroke-width="3"/>
<path d="M50.7171 35.6476L52.8945 43.0967" stroke="#8E6857" stroke-width="3"/>
</svg>
