<svg width="28" height="28" viewBox="0 0 28 28" fill="none" xmlns="http://www.w3.org/2000/svg">
<path fill-rule="evenodd" clip-rule="evenodd" d="M27.9997 13.9999C27.9997 21.7318 21.7318 27.9997 13.9999 27.9997C6.26795 27.9997 0 21.7318 0 13.9999C0 6.26795 6.26795 0 13.9999 0C21.7318 0 27.9997 6.26795 27.9997 13.9999ZM14.5015 10.3357C13.1398 10.9021 10.4184 12.0744 6.33714 13.8525C5.67441 14.1161 5.32724 14.3739 5.29563 14.626C5.24222 15.052 5.77577 15.2198 6.50231 15.4483C6.60114 15.4793 6.70354 15.5115 6.80852 15.5457C7.52333 15.778 8.48487 16.0498 8.98474 16.0606C9.43816 16.0704 9.94424 15.8835 10.503 15.4998C14.3162 12.9258 16.2846 11.6248 16.4082 11.5967C16.4954 11.5769 16.6162 11.552 16.698 11.6248C16.7799 11.6976 16.7719 11.8354 16.7632 11.8723C16.7103 12.0976 14.616 14.0447 13.5322 15.0524C13.1943 15.3665 12.9546 15.5893 12.9056 15.6402C12.7959 15.7542 12.684 15.862 12.5765 15.9656C11.9124 16.6058 11.4144 17.0859 12.6041 17.8698C13.1758 18.2466 13.6332 18.5581 14.0896 18.8689C14.588 19.2083 15.0852 19.5469 15.7284 19.9685C15.8923 20.0759 16.0488 20.1875 16.2012 20.2962C16.7812 20.7097 17.3024 21.0812 17.9462 21.022C18.3203 20.9875 18.7067 20.6358 18.9029 19.5867C19.3667 17.1073 20.2783 11.7352 20.489 9.52147C20.5075 9.32752 20.4843 9.07931 20.4656 8.97035C20.447 8.86138 20.408 8.70614 20.2664 8.59121C20.0986 8.45511 19.8397 8.4264 19.7239 8.42844C19.1973 8.43772 18.3894 8.71863 14.5015 10.3357Z" fill="white"/>
</svg>
