<svg width="28" height="28" viewBox="0 0 28 28" fill="none" xmlns="http://www.w3.org/2000/svg">
<path fill-rule="evenodd" clip-rule="evenodd" d="M4.56978 0.158882C4.93557 0.0850544 5.74035 0.0361996 6.36478 0.0140038C6.61214 0.00576591 6.85961 0.00118065 7.1071 0.000244141L20.8938 0.00245094C21.0471 0.00245094 21.3795 0.00710106 21.6364 0.0163536C22.2648 0.0388851 23.0756 0.0886974 23.4451 0.164013C24.0003 0.277201 24.5244 0.448109 24.9606 0.670986C25.4765 0.934614 25.9388 1.27102 26.3377 1.67056C26.7357 2.06933 27.0707 2.53105 27.3333 3.04632C27.5568 3.48484 27.7278 4.01214 27.8405 4.57051C27.9144 4.9363 27.9632 5.74108 27.9854 6.36547C27.9946 6.62258 27.9992 6.9551 27.9992 7.10784L27.997 20.8945C27.997 21.0478 27.9923 21.3803 27.9831 21.6371C27.9605 22.2655 27.9108 23.0764 27.8354 23.4458C27.7222 24.001 27.5513 24.5251 27.3284 24.9613C27.0648 25.4773 26.7284 25.9394 26.3288 26.3384C25.9301 26.7364 25.4683 27.0714 24.9531 27.3341C24.5146 27.5575 23.9873 27.7285 23.4289 27.8412C23.0632 27.9151 22.2583 27.9639 21.6339 27.9861C21.3768 27.9953 21.0443 27.9999 20.8916 27.9999L7.1049 27.9977C6.95158 27.9977 6.61911 27.993 6.36234 27.9838C5.73388 27.9613 4.92305 27.9115 4.55357 27.8361C3.99842 27.7229 3.47432 27.552 3.03811 27.3292C2.52217 27.0655 2.05992 26.7291 1.66105 26.3295C1.26295 25.9308 0.927986 25.4691 0.665365 24.9538C0.441912 24.5153 0.270906 23.988 0.158196 23.4296C0.0843192 23.0639 0.0354683 22.2591 0.0132716 21.6347C0.00416285 21.3775 -0.000488281 21.045 -0.000488281 20.8923L0.00171653 7.10563C0.00268345 6.85804 0.00730234 6.61048 0.0155715 6.36302C0.0381518 5.73457 0.0879636 4.92379 0.163279 4.5543C0.276516 3.9991 0.447376 3.47501 0.670254 3.03884C0.933882 2.52285 1.27024 2.06065 1.66987 1.66179C2.0686 1.26368 2.53037 0.928669 3.04559 0.666096C3.4841 0.442595 4.01141 0.271641 4.56978 0.158882ZM17.149 15.0318C17.3776 15.1149 18.6037 15.7181 18.8531 15.8429C18.9017 15.8672 18.9472 15.8892 18.9894 15.9095C19.1634 15.9936 19.2809 16.0504 19.3311 16.1341C19.3934 16.238 19.3934 16.7372 19.1856 17.3196C18.9778 17.9019 17.9814 18.4335 17.5023 18.505C17.0726 18.5693 16.529 18.596 15.9315 18.4063C15.5694 18.2914 15.1048 18.138 14.5098 17.8811C12.1725 16.8722 10.5927 14.6077 10.2935 14.1788C10.2725 14.1487 10.2578 14.1276 10.2496 14.1167L10.2474 14.1137C10.1148 13.9367 9.23134 12.7577 9.23134 11.5377C9.23134 10.3893 9.79559 9.78736 10.0553 9.51029C10.0731 9.4913 10.0895 9.47384 10.1041 9.45784C10.3328 9.2083 10.6029 9.14588 10.7692 9.14588C10.9354 9.14588 11.1018 9.14743 11.2472 9.15466C11.2651 9.15555 11.2837 9.15544 11.303 9.15533C11.4483 9.15447 11.6295 9.15341 11.8083 9.58264C11.8772 9.74828 11.9782 9.99408 12.0847 10.2532C12.299 10.7748 12.5355 11.3503 12.5771 11.4337C12.6395 11.5585 12.6811 11.7041 12.598 11.8705C12.5856 11.8953 12.5741 11.9187 12.5631 11.9411C12.5006 12.0688 12.4547 12.1625 12.3486 12.2864C12.307 12.3349 12.2641 12.3871 12.2212 12.4394C12.1353 12.544 12.0493 12.6487 11.9745 12.7232C11.8496 12.8475 11.7197 12.9824 11.8651 13.232C12.0106 13.4815 12.5111 14.298 13.2525 14.959C14.0495 15.6697 14.7421 15.9701 15.0932 16.1223C15.1617 16.152 15.2172 16.1761 15.258 16.1965C15.5074 16.3213 15.6528 16.3004 15.7982 16.1341C15.9438 15.9677 16.4217 15.4062 16.5879 15.1566C16.7542 14.907 16.9204 14.9486 17.149 15.0318ZM14.2994 22.0539H14.3028C18.8751 22.0539 22.5965 18.3336 22.5984 13.7609C22.5992 11.545 21.7371 9.46136 20.1709 7.89383C18.6047 6.32633 16.5218 5.46256 14.3061 5.4617C9.73023 5.4617 6.0088 9.18169 6.007 13.7541C6.00639 15.3211 6.44494 16.8472 7.27534 18.1676L7.47259 18.4814L6.63453 21.5416L9.77427 20.7182L10.0772 20.8979C11.3509 21.6536 12.8109 22.0533 14.2994 22.0539ZM14.3027 3.77656C16.9726 3.7776 19.4786 4.81673 21.363 6.70268C23.2474 8.5886 24.2845 11.0954 24.2835 13.7614C24.2813 19.2628 19.8035 23.739 14.3028 23.739H14.2987C12.6282 23.7383 10.9869 23.3194 9.52913 22.5246L4.23815 23.912L5.65409 18.7416C4.78072 17.2286 4.32114 15.512 4.32185 13.7535C4.32408 8.2522 8.80145 3.77656 14.3027 3.77656Z" fill="white"/>
</svg>
